<?xml version="1.0" encoding="iso-8859-1"?>
<!-- Uploaded to: SVG Repo, www.svgrepo.com, Generator: SVG Repo Mixer Tools -->
<svg fill="#000000" height="800px" width="800px" version="1.1" id="Layer_1" xmlns="http://www.w3.org/2000/svg" xmlns:xlink="http://www.w3.org/1999/xlink" 
	 viewBox="0 0 512.002 512.002" xml:space="preserve">
<g>
	<g>
		<path d="M500.626,169.987c-18.97-17.886-55.731-16.444-56.619-16.384c-96.932-3.127-143.877-37.986-154.115-46.676
			c-1.656-14.083-11.907-25.571-25.357-29.044V59.736c0-4.71-3.823-8.533-8.533-8.533c-9.412,0-17.067-7.654-17.067-17.067
			c0-9.412,7.654-17.067,17.067-17.067c9.412,0,17.067,7.654,17.067,17.067c0,4.71,3.823,8.533,8.533,8.533s8.533-3.823,8.533-8.533
			c0-18.825-15.309-34.133-34.133-34.133s-34.133,15.309-34.133,34.133c0,15.872,10.897,29.252,25.6,33.058v10.688
			c-13.462,3.476-23.719,14.98-25.361,29.08c-10.184,8.751-56.577,43.503-153.456,46.649c-1.536-0.077-38.289-1.51-57.276,16.375
			c-7.39,6.972-11.221,15.77-11.375,26.155c-0.034,2.287,0.853,4.489,2.458,6.118c1.604,1.63,3.797,2.543,6.076,2.543h204.024
			l-7.75,255.741c-0.077,2.347,0.828,4.634,2.492,6.289l42.667,42.667c1.672,1.673,3.849,2.5,6.033,2.5
			c2.185,0,4.369-0.828,6.033-2.5l42.667-42.667c1.664-1.655,2.569-3.942,2.5-6.289l-4.128-136.274h4.13
			c4.71,0,8.533-3.823,8.533-8.533v-34.133c0-4.71-3.823-8.533-8.533-8.533h-5.68l-2.071-68.267h204.016
			c2.287,0,4.48-0.913,6.084-2.543s2.483-3.831,2.449-6.118C511.856,185.756,508.024,176.958,500.626,169.987z M256.003,93.869
			c9.408,0,17.059,7.647,17.066,17.054c0,0.004-0.001,0.009-0.001,0.013c0,9.412-7.654,17.066-17.066,17.067
			c-9.412,0-17.066-7.655-17.066-17.067C238.936,101.524,246.59,93.869,256.003,93.869z M290.031,457.377L256,491.4l-34.022-34.022
			l8.175-269.641h51.704l0.111,3.677l0.154,5.112c0,0.007,0.001,0.014,0.002,0.021l2.319,76.519H256
			c-4.71,0-8.533,3.823-8.533,8.533v34.133c0,2.95,1.494,5.546,3.764,7.078c1.362,0.921,3.004,1.459,4.771,1.459h29.993
			L290.031,457.377z M294.272,307.199h-29.737v-17.063h34.133v17.067h-4.327C294.318,307.202,294.295,307.199,294.272,307.199z
			 M298.934,187.736l-0.171-5.621l-0.095-3.168c-0.017-0.577-0.091-1.139-0.217-1.681c-0.878-3.79-4.277-6.6-8.317-6.6h-68.267
			c-4.608,0-8.388,3.669-8.525,8.277l-0.038,1.266l-0.234,7.526H19.056c0.973-1.937,2.304-3.703,4.002-5.308
			c11.366-10.735,36.25-12.143,45.483-11.759c87.501-2.825,136.585-29.995,156.86-44.621c0.041,0.083,0.09,0.161,0.132,0.244
			c0.272,0.538,0.558,1.066,0.857,1.587c0.075,0.13,0.148,0.261,0.224,0.39c0.368,0.621,0.75,1.232,1.155,1.827
			c0.004,0.006,0.008,0.011,0.012,0.017c0.397,0.582,0.815,1.147,1.246,1.702c0.088,0.113,0.176,0.226,0.266,0.338
			c0.432,0.543,0.877,1.077,1.341,1.592c0.01,0.011,0.02,0.023,0.03,0.034c0.485,0.537,0.989,1.055,1.506,1.561
			c0.095,0.093,0.193,0.184,0.289,0.276c0.448,0.427,0.907,0.843,1.377,1.246c0.086,0.073,0.169,0.149,0.255,0.221
			c0.547,0.459,1.108,0.902,1.683,1.327c0.082,0.061,0.167,0.118,0.25,0.178c0.497,0.36,1.004,0.706,1.52,1.039
			c0.134,0.087,0.268,0.174,0.404,0.259c0.603,0.377,1.215,0.742,1.842,1.082c0.012,0.006,0.024,0.012,0.035,0.018
			c0.605,0.327,1.224,0.63,1.85,0.921c0.164,0.076,0.33,0.151,0.496,0.224c0.559,0.249,1.125,0.484,1.7,0.703
			c0.097,0.037,0.193,0.078,0.291,0.115c0.66,0.245,1.33,0.466,2.008,0.67c0.17,0.051,0.342,0.097,0.513,0.146
			c0.549,0.156,1.102,0.298,1.662,0.427c0.171,0.039,0.341,0.082,0.512,0.119c0.695,0.149,1.397,0.278,2.107,0.384
			c0.137,0.02,0.275,0.034,0.412,0.053c0.595,0.081,1.195,0.146,1.799,0.196c0.202,0.017,0.404,0.033,0.607,0.046
			c0.733,0.047,1.47,0.08,2.215,0.08c0.001,0,0.003,0,0.004,0c0,0,0,0,0.001,0c0,0,0.001,0,0.001,0c0.748,0,1.489-0.033,2.225-0.08
			c0.198-0.013,0.395-0.029,0.592-0.045c0.615-0.051,1.226-0.116,1.832-0.199c0.127-0.017,0.255-0.03,0.381-0.049
			c0.717-0.106,1.426-0.237,2.129-0.388c0.16-0.034,0.317-0.074,0.476-0.11c0.577-0.132,1.149-0.279,1.715-0.441
			c0.156-0.045,0.314-0.087,0.469-0.133c0.688-0.207,1.368-0.432,2.037-0.68c0.079-0.03,0.157-0.063,0.236-0.093
			c0.597-0.227,1.185-0.472,1.765-0.731c0.151-0.068,0.302-0.135,0.453-0.205c1.3-0.603,2.555-1.284,3.761-2.039
			c0.127-0.079,0.252-0.161,0.377-0.242c0.526-0.339,1.043-0.691,1.549-1.058c0.077-0.056,0.156-0.109,0.233-0.166
			c0.576-0.425,1.137-0.868,1.684-1.328c0.09-0.076,0.178-0.155,0.267-0.232c0.462-0.396,0.912-0.804,1.352-1.223
			c0.106-0.101,0.212-0.2,0.317-0.302c0.507-0.496,1.002-1.004,1.477-1.53c0.04-0.044,0.077-0.09,0.116-0.134
			c0.426-0.476,0.836-0.966,1.235-1.466c0.115-0.143,0.228-0.287,0.34-0.433c0.377-0.487,0.742-0.984,1.092-1.491
			c0.051-0.074,0.106-0.145,0.156-0.219c0.378-0.558,0.736-1.13,1.082-1.711c0.115-0.193,0.225-0.389,0.337-0.585
			c0.24-0.422,0.471-0.85,0.693-1.283c0.074-0.143,0.158-0.28,0.229-0.425c20.301,14.618,69.504,41.788,157.5,44.612
			c8.636-0.358,33.476,1.033,44.834,11.767c1.707,1.604,3.038,3.371,4.011,5.308H298.934z"/>
	</g>
</g>
</svg>